<svg width="28" height="20" viewBox="0 0 28 20" fill="none" xmlns="http://www.w3.org/2000/svg">
<path d="M19 1H1V16.6H19V1Z" fill="white" stroke="black" stroke-width="0.5" stroke-linecap="round" stroke-linejoin="round"/>
<path d="M19 7H23.8L27.4 10.6V16.6H19V7Z" fill="white" stroke="black" stroke-width="0.5" stroke-linecap="round" stroke-linejoin="round"/>
<path d="M6.39999 19C8.05685 19 9.39999 17.6569 9.39999 16C9.39999 14.3431 8.05685 13 6.39999 13C4.74314 13 3.39999 14.3431 3.39999 16C3.39999 17.6569 4.74314 19 6.39999 19Z" fill="white" stroke="black" stroke-width="0.5" stroke-linecap="round" stroke-linejoin="round"/>
<path d="M22 19C23.6569 19 25 17.6569 25 16C25 14.3431 23.6569 13 22 13C20.3431 13 19 14.3431 19 16C19 17.6569 20.3431 19 22 19Z" fill="white" stroke="black" stroke-width="0.5" stroke-linecap="round" stroke-linejoin="round"/>
</svg>
